<?xml version="1.0" encoding="utf-8"?>
<!-- Generator: Adobe Illustrator 16.0.0, SVG Export Plug-In . SVG Version: 6.00 Build 0)  -->
<svg version="1.2" baseProfile="tiny" id="Слой_1"
	 xmlns="http://www.w3.org/2000/svg" xmlns:xlink="http://www.w3.org/1999/xlink" x="0px" y="0px" width="96px" height="101px"
	 viewBox="0 0 96 101" xml:space="preserve">
<g>
	<path fill-rule="evenodd" fill="#222224" d="M37.568,65.561c-6.709-11.77-13.355-23.431-20.002-35.092
		c-0.072,0.012-0.143,0.023-0.217,0.036c0,11.712,0,23.425,0,35.178c-1.697,0-3.244,0-4.873,0c0-17.941,0-35.866,0-53.792
		c0.047-0.023,0.092-0.045,0.139-0.067C20.906,26.372,29.197,40.92,37.57,55.609c8.389-14.698,16.707-29.276,25.145-44.06
		c0,12.583,0,24.935,0,37.287c0.07,0.03,0.145,0.06,0.215,0.089c7.475-12.19,14.947-24.381,22.52-36.734c0,17.937,0,35.67,0,53.468
		c-1.59,0-3.182,0-4.855,0c0-11.869,0-23.752,0-35.636c-0.078-0.031-0.156-0.063-0.234-0.093
		c-7.465,12.175-14.93,24.352-22.51,36.715c0-12.189,0-24.165,0-36.14c-0.076-0.029-0.15-0.058-0.227-0.087
		C50.957,42.098,44.293,53.777,37.568,65.561z"/>
	<path fill-rule="evenodd" fill="#222224" d="M25.43,76.762c-0.18,0.084-0.354,0.236-0.533,0.242
		c-0.648,0.022-0.879,0.365-0.877,0.969c0.008,2.635,0.008,5.27,0,7.904c0,0.631,0.242,0.992,0.926,1.009
		c0.162,0.004,0.318,0.19,0.477,0.294c-0.037,0.066-0.074,0.132-0.115,0.199c-1.322,0-2.648,0-3.975,0
		c-0.037-0.061-0.078-0.121-0.115-0.184c0.16-0.107,0.311-0.295,0.479-0.309c0.531-0.043,0.875-0.256,0.877-0.816
		c0.008-2.732,0.004-5.465-0.152-8.24c-0.367,0.959-0.736,1.914-1.105,2.872c-0.785,2.056-1.564,4.115-2.375,6.161
		c-0.088,0.222-0.381,0.508-0.57,0.502c-0.195-0.008-0.473-0.299-0.557-0.525c-0.992-2.646-1.953-5.303-2.926-7.957
		c-0.107-0.298-0.232-0.59-0.43-1.086c-0.037,0.391-0.07,0.57-0.07,0.752c-0.004,2.358,0.004,4.717-0.006,7.076
		c-0.002,0.712,0.154,1.242,1.016,1.263c0.133,0.003,0.262,0.208,0.391,0.319c-0.027,0.064-0.057,0.131-0.084,0.197
		c-1.068,0-2.137,0.006-3.203-0.01c-0.102-0.003-0.199-0.15-0.301-0.23c0.109-0.096,0.217-0.275,0.328-0.277
		c0.852-0.02,1.027-0.529,1.023-1.257c-0.014-2.509-0.016-5.018,0.002-7.526c0.006-0.688-0.16-1.129-0.957-1.104
		c-0.127,0.004-0.264-0.182-0.396-0.281c0.123-0.079,0.246-0.164,0.375-0.236c0.039-0.021,0.1-0.004,0.15-0.004
		c0.9,0.018,2.002-0.275,2.641,0.143c0.594,0.391,0.705,1.529,1.01,2.347c0.691,1.851,1.367,3.708,2.051,5.563
		c0.068,0.183,0.162,0.356,0.311,0.685c0.566-1.485,1.08-2.836,1.596-4.184c0.518-1.355,1.02-2.716,1.57-4.057
		c0.09-0.212,0.393-0.461,0.611-0.474c0.922-0.052,1.85-0.022,2.777-0.022C25.336,76.574,25.383,76.667,25.43,76.762z"/>
	<path fill-rule="evenodd" fill="#222224" d="M31.209,82.216c-0.617-0.118-1.135-0.185-1.633-0.318
		c-1.373-0.367-2.246-1.509-2.172-2.788c0.074-1.294,1.066-2.384,2.498-2.465c2.324-0.129,4.658-0.12,6.986-0.154
		c0.125-0.002,0.252,0.146,0.379,0.223c-0.131,0.102-0.262,0.291-0.391,0.287c-0.799-0.029-0.965,0.43-0.959,1.105
		c0.012,2.559,0.012,5.117-0.004,7.676c-0.004,0.681,0.174,1.125,0.967,1.105c0.148-0.004,0.303,0.191,0.453,0.294
		c-0.033,0.062-0.064,0.124-0.1,0.187c-1.342,0-2.688,0-4.029,0c-0.041-0.059-0.082-0.116-0.123-0.175
		c0.156-0.107,0.309-0.305,0.461-0.305c0.727,0,0.965-0.354,0.945-1.04c-0.029-1.199-0.008-2.398-0.008-3.626
		c-0.875-0.194-1.533-0.146-2.092,0.681c-0.898,1.326-1.967,2.534-2.893,3.842c-0.389,0.545-0.814,0.736-1.441,0.671
		c-0.371-0.04-0.752,0.009-1.127-0.021c-0.111-0.01-0.215-0.147-0.318-0.225c0.082-0.1,0.162-0.275,0.256-0.283
		c0.854-0.07,1.303-0.676,1.762-1.279C29.473,84.498,30.316,83.387,31.209,82.216z M34.443,77.319c-1.168,0-2.242-0.017-3.316,0.005
		c-1.139,0.023-1.9,0.678-1.982,1.652c-0.1,1.221,0.494,2.124,1.693,2.246c1.178,0.121,2.381,0.027,3.605,0.027
		C34.443,79.938,34.443,78.673,34.443,77.319z"/>
	<path fill-rule="evenodd" fill="#222224" d="M79.258,82.218c-0.641-0.126-1.16-0.196-1.666-0.334
		c-1.367-0.372-2.236-1.53-2.141-2.808c0.094-1.269,1.057-2.363,2.453-2.421c2.445-0.101,4.898-0.028,7.59-0.028
		C85.211,76.81,85.049,77,84.891,77c-0.691-0.007-0.926,0.348-0.924,0.986c0.008,2.633,0.008,5.266,0,7.898
		c-0.004,0.636,0.223,0.998,0.912,1.002c0.164,0.001,0.328,0.182,0.488,0.281c-0.035,0.066-0.07,0.137-0.105,0.206
		c-1.348,0-2.695,0-4.041,0c-0.033-0.073-0.066-0.146-0.1-0.216c0.17-0.098,0.34-0.271,0.512-0.274
		c0.68-0.015,0.916-0.347,0.902-1.001c-0.027-1.221-0.008-2.443-0.008-3.654c-0.92-0.227-1.568-0.105-2.117,0.703
		c-0.902,1.323-1.957,2.541-2.896,3.838c-0.365,0.504-0.76,0.727-1.375,0.647c-0.369-0.048-0.754,0.011-1.125-0.024
		c-0.127-0.013-0.24-0.169-0.359-0.26c0.098-0.088,0.184-0.188,0.291-0.262c0.518-0.354,1.148-0.609,1.543-1.069
		C77.449,84.686,78.299,83.476,79.258,82.218z M82.479,81.267c0-1.354,0-2.616,0-3.948c-1.121,0-2.191-0.014-3.264,0.004
		c-1.188,0.021-1.949,0.672-2.021,1.687c-0.084,1.239,0.57,2.138,1.795,2.239C80.129,81.34,81.279,81.267,82.479,81.267z"/>
	<path fill-rule="evenodd" fill="#222224" d="M55.254,76.73c-0.158,0.095-0.314,0.271-0.473,0.27
		c-0.732-0.007-0.959,0.369-0.941,1.045c0.023,1.049,0.006,2.098,0.006,3.199c1.928,0,3.799,0,5.766,0
		c0-1.207,0.039-2.426-0.039-3.639c-0.014-0.213-0.518-0.404-0.809-0.586c-0.168-0.105-0.355-0.172-0.533-0.254
		c0.025-0.095,0.055-0.189,0.084-0.283c1.268,0,2.539-0.006,3.807,0.01c0.1,0.002,0.199,0.147,0.297,0.227
		c-0.107,0.098-0.219,0.285-0.32,0.279c-0.871-0.048-1.041,0.431-1.033,1.184c0.027,2.559,0.025,5.119,0.002,7.68
		c-0.008,0.676,0.174,1.057,0.926,1.025c0.156-0.006,0.322,0.188,0.48,0.289c-0.037,0.066-0.074,0.134-0.111,0.202
		c-1.324,0-2.648,0-3.973,0c-0.039-0.061-0.078-0.122-0.119-0.183c0.158-0.107,0.318-0.312,0.473-0.307
		c0.695,0.026,0.922-0.286,0.902-0.958c-0.037-1.224-0.012-2.452-0.012-3.736c-1.918,0-3.785,0-5.76,0
		c0,1.39-0.051,2.812,0.053,4.22c0.016,0.236,0.705,0.422,1.223,0.71c-0.057,0.048-0.195,0.263-0.338,0.266
		c-1.225,0.027-2.453,0.016-3.678,0.016c-0.043-0.07-0.082-0.14-0.125-0.21c0.154-0.108,0.311-0.313,0.459-0.308
		c0.75,0.032,0.945-0.366,0.943-1.03c-0.014-2.61-0.014-5.22,0-7.83c0.004-0.68-0.23-1.047-0.959-1.027
		c-0.129,0.002-0.26-0.186-0.391-0.287c0.127-0.077,0.252-0.221,0.377-0.223c1.229-0.017,2.457-0.01,3.682-0.01
		C55.164,76.564,55.209,76.648,55.254,76.73z"/>
	<path fill-rule="evenodd" fill="#222224" d="M34.334,100.961c-1.025,0-2.051,0.008-3.078-0.011
		c-0.127-0.002-0.252-0.146-0.377-0.224c0.131-0.1,0.256-0.275,0.393-0.287c0.418-0.035,0.783-0.133,0.787-0.617
		c0.016-2.351,0.006-4.699-0.156-7.082c-0.574,1.529-1.145,3.06-1.721,4.588c-0.395,1.055-0.781,2.11-1.195,3.156
		c-0.07,0.181-0.26,0.314-0.395,0.472c-0.158-0.161-0.385-0.295-0.457-0.487c-0.91-2.357-1.795-4.723-2.689-7.084
		c-0.064-0.174-0.141-0.344-0.367-0.485c0,0.866,0,1.731,0,2.597c0,1.33,0.006,2.66-0.004,3.99
		c-0.004,0.563,0.186,0.909,0.805,0.953c0.135,0.01,0.262,0.188,0.391,0.289c-0.127,0.077-0.252,0.219-0.381,0.222
		c-0.875,0.021-1.752,0.011-2.627,0.011c-0.041-0.071-0.08-0.142-0.121-0.212c0.156-0.108,0.301-0.293,0.467-0.312
		c0.559-0.063,0.785-0.357,0.783-0.899c-0.004-2.233-0.008-4.466,0.004-6.698c0.004-0.549-0.232-0.766-0.77-0.777
		c-0.166-0.005-0.328-0.186-0.494-0.286c0.037-0.079,0.074-0.156,0.109-0.235c0.799,0,1.604-0.031,2.398,0.025
		c0.176,0.012,0.404,0.303,0.486,0.513c0.768,1.983,1.506,3.975,2.256,5.964c0.111,0.298,0.244,0.59,0.438,1.057
		c0.986-2.615,1.906-5.066,2.832-7.527c0.92,0,1.816,0,2.715,0c0.035,0.057,0.07,0.113,0.105,0.17
		c-0.145,0.111-0.289,0.318-0.432,0.316c-0.686-0.007-0.84,0.367-0.834,0.965c0.016,2.131,0.014,4.264,0.002,6.396
		c-0.006,0.614,0.125,1.037,0.861,1.023c0.131-0.002,0.262,0.201,0.395,0.31C34.422,100.822,34.377,100.892,34.334,100.961z"/>
	<path fill-rule="evenodd" fill="#222224" d="M12.254,91.568c1.125,0,2.25,0,3.375,0c0.039,0.059,0.08,0.119,0.119,0.178
		c-0.156,0.111-0.305,0.3-0.471,0.318c-0.443,0.045-0.732,0.22-0.734,0.684c-0.008,1.854-0.002,3.706-0.002,5.559
		c0.078,0.063,0.158,0.127,0.238,0.19c0.428-0.5,0.834-1.02,1.285-1.496c1.104-1.165,2.25-2.293,3.33-3.479
		c0.211-0.232,0.316-0.688,0.256-0.998c-0.039-0.191-0.488-0.295-0.744-0.449c-0.158-0.094-0.297-0.211-0.445-0.318
		c0.031-0.061,0.066-0.119,0.102-0.18c1.146,0,2.291,0,3.438,0c0.037,0.063,0.076,0.125,0.113,0.188
		c-0.16,0.105-0.316,0.293-0.479,0.299c-0.596,0.021-0.779,0.343-0.779,0.878c0.006,2.233,0.008,4.467,0,6.7
		c-0.002,0.527,0.195,0.79,0.75,0.799c0.172,0.004,0.342,0.176,0.512,0.271c-0.033,0.072-0.068,0.145-0.1,0.218
		c-1.146,0-2.295,0-3.441,0c-0.035-0.068-0.07-0.138-0.105-0.206c0.162-0.099,0.328-0.283,0.49-0.279
		c0.609,0.012,0.771-0.285,0.766-0.842c-0.018-1.746-0.006-3.494-0.006-5.242c-0.063-0.035-0.123-0.07-0.186-0.104
		c-0.541,0.573-1.074,1.15-1.621,1.717c-1.014,1.045-2.051,2.067-3.033,3.14c-0.201,0.219-0.313,0.623-0.273,0.917
		c0.023,0.161,0.449,0.265,0.689,0.399c0.166,0.095,0.328,0.198,0.492,0.298c-0.035,0.068-0.072,0.138-0.107,0.207
		c-1.125,0-2.25,0-3.375,0c-0.045-0.054-0.088-0.108-0.133-0.163c0.135-0.113,0.271-0.331,0.4-0.326
		c0.701,0.024,0.832-0.357,0.828-0.955c-0.02-2.133-0.016-4.266-0.002-6.398c0.004-0.605-0.104-1.048-0.852-1.031
		c-0.135,0.004-0.273-0.216-0.41-0.332C12.178,91.674,12.217,91.621,12.254,91.568z"/>
	<path fill-rule="evenodd" fill="#222224" d="M71.668,91.57c1.404,0,2.529,0,3.654,0c0.037,0.054,0.076,0.107,0.111,0.162
		c-0.139,0.114-0.277,0.326-0.416,0.326c-0.621,0.002-0.846,0.307-0.844,0.893c0.01,2.233,0.012,4.467,0.002,6.7
		c-0.004,0.535,0.207,0.78,0.758,0.789c0.168,0.003,0.332,0.181,0.5,0.279c-0.035,0.07-0.072,0.141-0.105,0.211
		c-1.148,0-2.295,0-3.443,0c-0.031-0.075-0.063-0.147-0.094-0.223c0.191-0.095,0.395-0.17,0.568-0.288
		c0.234-0.156,0.637-0.342,0.641-0.523c0.049-1.846,0.031-3.691-0.137-5.627c-0.564,0.588-1.125,1.18-1.691,1.763
		c-0.996,1.026-2.016,2.031-2.98,3.086c-0.199,0.218-0.307,0.626-0.262,0.918c0.021,0.161,0.453,0.257,0.691,0.392
		c0.166,0.094,0.32,0.205,0.479,0.309c-0.037,0.066-0.074,0.133-0.113,0.198c-1.125,0-2.25,0-3.371,0
		c-0.041-0.062-0.078-0.124-0.119-0.188c0.162-0.105,0.32-0.301,0.482-0.305c0.561-0.014,0.74-0.293,0.738-0.813
		c-0.012-2.233-0.01-4.467-0.004-6.701c0.002-0.539-0.186-0.854-0.781-0.867c-0.158-0.003-0.311-0.197-0.467-0.304
		c0.039-0.064,0.08-0.127,0.119-0.19c1.123,0,2.25,0,3.373,0c0.039,0.063,0.078,0.125,0.115,0.188
		c-0.162,0.107-0.316,0.291-0.488,0.311c-0.445,0.048-0.721,0.234-0.723,0.695c-0.006,1.851-0.002,3.701-0.002,5.746
		c0.332-0.312,0.549-0.498,0.746-0.701c1.328-1.367,2.668-2.725,3.961-4.125c0.252-0.273,0.428-0.736,0.406-1.098
		c-0.014-0.186-0.549-0.326-0.83-0.514C72.002,91.975,71.902,91.821,71.668,91.57z"/>
	<path fill-rule="evenodd" fill="#222224" d="M80.201,96.498c-0.494-0.078-0.855-0.13-1.219-0.193
		c-1.277-0.225-2.189-1.232-2.176-2.404c0.012-1.169,0.867-2.141,2.229-2.205c2.07-0.098,4.15-0.025,6.502-0.025
		c-0.326,0.204-0.488,0.391-0.65,0.393c-0.602,0.006-0.775,0.314-0.771,0.861c0.012,2.207,0.012,4.416,0,6.624
		c-0.004,0.587,0.195,0.896,0.822,0.896c0.148-0.002,0.295,0.199,0.443,0.308c-0.035,0.06-0.07,0.118-0.105,0.178
		c-1.145,0-2.291,0-3.438,0c-0.037-0.067-0.072-0.135-0.111-0.203c0.164-0.1,0.326-0.282,0.49-0.284
		c0.592-0.006,0.783-0.287,0.77-0.85c-0.025-1.021-0.006-2.045-0.006-3.051c-0.889-0.264-1.48-0.058-1.996,0.664
		c-0.729,1.019-1.629,1.913-2.346,2.938c-0.484,0.69-1.049,0.926-1.832,0.826c-0.221-0.027-0.447-0.005-0.803-0.165
		c0.125-0.126,0.232-0.276,0.377-0.374c0.441-0.302,0.984-0.506,1.33-0.889C78.561,98.6,79.326,97.58,80.201,96.498z M82.939,92.26
		c-0.232-0.015-0.379-0.031-0.529-0.031c-0.85,0-1.703-0.021-2.555,0.009c-1.068,0.039-1.713,0.637-1.758,1.569
		c-0.055,1.057,0.506,1.807,1.596,1.898c1.061,0.09,2.137,0.02,3.246,0.02C82.939,94.557,82.939,93.441,82.939,92.26z"/>
	<path fill-rule="evenodd" fill="#222224" d="M70.42,87.199c0.146-0.109,0.287-0.304,0.441-0.314
		c0.693-0.045,0.773-0.427,0.611-0.981c-0.006-0.024-0.02-0.046-0.025-0.07c-0.705-2.341-0.705-2.341-3.148-2.344
		c-1.816-0.001-1.816-0.001-2.42,1.681c-0.076,0.211-0.168,0.416-0.238,0.632c-0.238,0.737-0.123,0.909,0.629,1.081
		c0.158,0.037,0.287,0.212,0.43,0.323c-0.035,0.065-0.072,0.132-0.107,0.198c-0.9,0-1.801,0.011-2.697-0.01
		c-0.131-0.004-0.256-0.152-0.387-0.234c0.086-0.096,0.16-0.262,0.262-0.279c0.621-0.107,0.838-0.572,1.021-1.081
		c1.039-2.866,2.086-5.729,3.115-8.601c0.16-0.451,0.293-0.765,0.906-0.75c0.596,0.016,0.861,0.178,1.059,0.755
		c0.938,2.741,1.924,5.467,2.91,8.192c0.232,0.646,0.379,1.389,1.268,1.504c0.066,0.008,0.113,0.182,0.17,0.279
		c-0.133,0.074-0.264,0.215-0.398,0.217c-1.078,0.018-2.154,0.01-3.23,0.01C70.533,87.337,70.477,87.27,70.42,87.199z
		 M70.303,82.614c-0.576-1.616-1.117-3.132-1.738-4.873c-0.633,1.747-1.188,3.276-1.768,4.873
		C67.988,82.614,69.08,82.614,70.303,82.614z"/>
	<path fill-rule="evenodd" fill="#222224" d="M45.908,91.787c-0.164,0.097-0.334,0.275-0.498,0.275
		c-0.693,0-0.914,0.348-0.908,0.995c0.016,2.159,0.02,4.315-0.004,6.474c-0.006,0.641,0.232,0.925,0.881,0.91
		c0.156-0.003,0.314,0.185,0.471,0.285c-0.15,0.079-0.301,0.224-0.455,0.227c-1.1,0.02-2.201,0.011-3.303,0.011
		c-0.035-0.079-0.072-0.155-0.107-0.233c0.176-0.102,0.355-0.294,0.527-0.287c0.656,0.024,0.873-0.258,0.867-0.902
		c-0.027-2.404-0.012-4.808-0.012-7.263c-1.682,0-3.299,0-4.973,0c-0.021,0.185-0.059,0.376-0.059,0.566
		c-0.006,2.206,0.012,4.415-0.014,6.623c-0.006,0.653,0.188,1,0.896,0.974c0.17-0.006,0.346,0.166,0.52,0.256
		c-0.031,0.076-0.063,0.151-0.094,0.227c-1.244,0-2.488,0-3.736,0c-0.037-0.063-0.076-0.125-0.115-0.188
		c0.158-0.103,0.318-0.3,0.473-0.292c0.748,0.037,0.947-0.329,0.938-1.014c-0.027-2.107-0.021-4.216-0.002-6.322
		c0.006-0.66-0.16-1.074-0.922-1.047c-0.16,0.006-0.328-0.182-0.492-0.281c0.035-0.068,0.068-0.137,0.105-0.207
		c3.305,0,6.607,0,9.914,0C45.84,91.645,45.875,91.716,45.908,91.787z"/>
	<path fill-rule="evenodd" fill="#222224" d="M49.439,84.537c-1.512,2.815-4.848,3.765-7.438,2.391
		c-2.531-1.342-3.57-4.719-2.291-7.444c1.35-2.872,4.281-3.801,7.705-2.399c0.096-0.147,0.166-0.383,0.307-0.441
		c0.148-0.061,0.51,0.008,0.533,0.09c0.313,1.1,0.582,2.211,0.859,3.305c-0.469,0.31-0.686,0.167-0.861-0.234
		c-0.191-0.434-0.396-0.87-0.664-1.259c-1.568-2.261-4.709-2.017-6.053,0.481c-0.842,1.568-0.912,3.232-0.262,4.87
		c1.102,2.776,4.184,3.536,6.568,1.657c0.332-0.26,0.594-0.612,0.934-0.861C48.945,84.568,49.217,84.584,49.439,84.537z"/>
	<path fill-rule="evenodd" fill="#222224" d="M49.365,92.227c0,1.158,0,2.224,0,3.365c0.553,0,1.076,0.044,1.59-0.01
		c0.721-0.078,1.088-0.529,1.156-1.257c0.02-0.197,0.178-0.381,0.273-0.571c0.074,0.032,0.148,0.064,0.223,0.096
		c0,1.349,0,2.695,0,4.043c-0.055,0.037-0.109,0.073-0.164,0.11c-0.113-0.141-0.299-0.268-0.326-0.423
		c-0.182-1.049-0.424-1.275-1.459-1.285c-0.398-0.004-0.801-0.001-1.316-0.001c0,1.222-0.014,2.411,0.02,3.603
		c0.002,0.127,0.252,0.354,0.383,0.352c1.1-0.015,2.213,0.024,3.293-0.144c1.221-0.19,1.865-1.169,2.471-2.431
		c0.152,0.358,0.234,0.537,0.305,0.722c0.014,0.041-0.012,0.1-0.025,0.147c-0.246,0.76-0.279,1.786-0.803,2.205
		c-0.498,0.4-1.504,0.201-2.289,0.21c-1.877,0.019-3.756,0.006-5.635,0.006c-0.039-0.071-0.08-0.143-0.121-0.214
		c0.154-0.107,0.309-0.307,0.461-0.307c0.648-0.002,0.795-0.348,0.791-0.918c-0.014-2.183-0.014-4.363,0-6.547
		c0.004-0.568-0.135-0.918-0.787-0.918c-0.156,0-0.316-0.197-0.473-0.305c0.041-0.063,0.084-0.126,0.123-0.189
		c2.555,0,5.105,0,7.705,0c0.281,0.85,0.561,1.689,0.844,2.53c-0.072,0.052-0.145,0.103-0.219,0.155
		c-0.148-0.129-0.354-0.229-0.436-0.392c-0.576-1.159-1.494-1.689-2.789-1.64C51.26,92.254,50.357,92.227,49.365,92.227z"/>
	<path fill-rule="evenodd" fill="#222224" d="M9.355,3.291C10.43,2.217,11.564,1.086,12.65,0c1.105,1.109,2.248,2.253,3.379,3.39
		c-1.07,1.058-2.211,2.183-3.301,3.262C11.619,5.546,10.473,4.405,9.355,3.291z"/>
	<path fill-rule="evenodd" fill="#222224" d="M62.666,0.035c1.078,1.079,2.207,2.207,3.311,3.311
		c-1.096,1.086-2.232,2.209-3.318,3.288c-1.088-1.087-2.217-2.218-3.307-3.308C60.406,2.28,61.535,1.158,62.666,0.035z"/>
	<path fill-rule="evenodd" fill="#222224" d="M59.268,96.969c0,0.968,0.004,1.893-0.002,2.816c-0.002,0.448,0.234,0.607,0.65,0.652
		c0.189,0.021,0.365,0.188,0.547,0.29c-0.201,0.079-0.404,0.221-0.607,0.226c-0.949,0.025-1.9,0.011-2.852,0.011
		c-0.043-0.071-0.082-0.143-0.121-0.214c0.152-0.107,0.305-0.307,0.459-0.309c0.646-0.002,0.797-0.344,0.793-0.917
		c-0.016-2.158-0.02-4.315,0.002-6.474c0.006-0.632-0.123-1.027-0.861-0.993c-0.131,0.005-0.271-0.22-0.441-0.369
		c2.035,0,3.916-0.079,5.785,0.027c1.316,0.073,2.244,1.255,2.217,2.511c-0.027,1.299-0.994,2.387-2.322,2.526
		C61.473,96.865,60.422,96.896,59.268,96.969z M59.324,92.254c0,1.368,0,2.634,0,3.934c0.883,0,1.709,0.059,2.525-0.014
		c1.059-0.092,1.689-0.867,1.699-1.939c0.012-1.096-0.596-1.875-1.65-1.966C61.059,92.195,60.209,92.254,59.324,92.254z"/>
	<path fill-rule="evenodd" fill="#222224" d="M85.342,0.047c1.084,1.076,2.215,2.198,3.303,3.276
		c-1.063,1.063-2.188,2.19-3.244,3.248c-1.078-1.082-2.213-2.223-3.293-3.309C83.129,2.245,84.26,1.121,85.342,0.047z"/>
</g>
<g>
</g>
<g>
</g>
<g>
</g>
<g>
</g>
<g>
</g>
<g>
</g>
<g>
</g>
<g>
</g>
<g>
</g>
<g>
</g>
<g>
</g>
<g>
</g>
<g>
</g>
<g>
</g>
<g>
</g>
</svg>
